<?xml version="1.0" encoding="UTF-8"?>
<svg width="110px" height="211px" viewBox="0 0 110 211" version="1.1" xmlns="http://www.w3.org/2000/svg" xmlns:xlink="http://www.w3.org/1999/xlink">
    <!-- Generator: Sketch 41.2 (35397) - http://www.bohemiancoding.com/sketch -->
    <title>Group 11</title>
    <desc>Created with Sketch.</desc>
    <defs>
        <linearGradient x1="50%" y1="35.7596839%" x2="50%" y2="102.805688%" id="linearGradient-1">
            <stop stop-color="#FFFFFF" offset="0%"></stop>
            <stop stop-color="#D8D8D8" offset="100%"></stop>
        </linearGradient>
        <linearGradient x1="50%" y1="0%" x2="50%" y2="100%" id="linearGradient-2">
            <stop stop-color="#FFFFFF" offset="0%"></stop>
            <stop stop-color="#FFEBDF" offset="100%"></stop>
        </linearGradient>
    </defs>
    <g id="Page-1" stroke="none" stroke-width="1" fill="none" fill-rule="evenodd">
        <g id="Desktop-Landscape-Copy" transform="translate(-604.000000, 0.000000)">
            <g id="Group-11" transform="translate(605.000000, -4.000000)">
                <g id="Lightbulb">
                    <g id="Group-2" transform="translate(0.000000, 140.019335)">
                        <g id="Group">
                            <g id="Group-3" transform="translate(0.000000, 12.554474)">
                                <path d="M26.2159014,2.3192646 C24.6530128,-0.273318398 14.9929998,0.245438784 13.1518386,2.3192646 C11.3106774,4.39309041 12.6579069,14.2818577 10.6169369,18.7419643 C6.92549085,26.0959886 3.64795633,24.2173358 0.500383156,33.9332335 C0.134175474,35.5431769 -1.35519331,60.5568733 19.840588,60.5568733 C41.0363693,60.5568733 40.4090689,40.1703682 38.4486434,33.9120705 C36.2240041,26.6564176 29.6768811,23.0370327 28.8747591,18.7419643 C26.5146069,13.5590602 27.7787899,4.91184759 26.2159014,2.3192646 Z" id="Path-33" stroke="#F6BB43" stroke-width="2" fill="#F6BB43"></path>
                                <path d="M25.4357052,3.39641848 C23.9863367,0.992147093 15.4740112,1.47322448 13.7665823,3.39641848 C12.0591534,5.31961248 13.2671015,15.4275364 11.3743768,19.5636842 C7.951058,26.3835509 4.91158637,24.6413536 1.99263638,33.6515395 C1.6530281,35.144545 0.271839237,58.341378 19.9280703,58.341378 C39.5843014,58.341378 39.0025648,39.4356415 37.1845343,33.6319137 C35.1214811,26.9032733 28.7730038,23.5467815 28.0291437,19.5636842 C25.8404205,14.7572391 26.8850738,5.80068986 25.4357052,3.39641848 Z" id="Path-33" fill="url(#linearGradient-1)"></path>
                            </g>
                            <g id="Group-3" transform="translate(0.000000, 12.554474)">
                                <path d="M26.2159014,2.3192646 C24.6530128,-0.273318398 14.9929998,0.245438784 13.1518386,2.3192646 C11.3106774,4.39309041 12.6579069,14.2818577 10.6169369,18.7419643 C6.92549085,26.0959886 3.64795633,24.2173358 0.500383156,33.9332335 C0.134175474,35.5431769 -1.35519331,60.5568733 19.840588,60.5568733 C41.0363693,60.5568733 40.4090689,40.1703682 38.4486434,33.9120705 C36.2240041,26.6564176 29.6768811,23.0370327 28.8747591,18.7419643 C26.5146069,13.5590602 27.7787899,4.91184759 26.2159014,2.3192646 Z" id="Path-33" stroke="#FFFFFF" stroke-width="2" fill="url(#linearGradient-2)" opacity="0.269021739"></path>
                                <path d="M25.4357052,3.39641848 C23.9863367,0.992147093 15.4740112,1.47322448 13.7665823,3.39641848 C12.0591534,5.31961248 13.2671015,15.4275364 11.3743768,19.5636842 C7.951058,26.3835509 4.91158637,24.6413536 1.99263638,33.6515395 C1.6530281,35.144545 0.271839237,58.341378 19.9280703,58.341378 C39.5843014,58.341378 39.0025648,39.4356415 37.1845343,33.6319137 C35.1214811,26.9032733 28.7730038,23.5467815 28.0291437,19.5636842 C25.8404205,14.7572391 26.8850738,5.80068986 25.4357052,3.39641848 Z" id="Path-33" fill="#FFFFFF" opacity="0.13745471"></path>
                            </g>
                            <rect id="Rectangle-2" fill="#000000" x="12.2841238" y="7.81362352" width="13.9339339" height="3.32582521" rx="1.66291261"></rect>
                            <rect id="Rectangle-2" fill="#000000" x="12.2841238" y="4.01268042" width="13.9339339" height="3.32582521" rx="1.66291261"></rect>
                            <path d="M15.4154154,2.50930622 C15.4154154,1.5211533 16.1965077,0.531047513 17.1509723,0.314066994 C17.1509723,0.314066994 18.2819518,0.000561235656 19.019019,0.000561235656 C19.7560862,0.000561235656 20.8870657,0.314066994 20.8870657,0.314066994 C21.8455873,0.538311223 22.6226226,1.51417801 22.6226226,2.50930622 L22.6226226,1.78159528 C22.6226226,2.7697482 21.8237881,3.57080441 20.8410654,3.57080441 L17.1969727,3.57080441 C16.2130458,3.57080441 15.4154154,2.77672349 15.4154154,1.78159528 L15.4154154,2.50930622 Z" id="Rectangle-3" fill="#000000"></path>
                        </g>
                    </g>
                    <path d="M19.0000205,139.559426 L19.0000205,0.967527209" id="Line" stroke="#000000" stroke-width="2" stroke-linecap="square"></path>
                    <path d="M17.2423812,180.301401 C19.479805,180.880379 19.2195423,184.076356 16.4861185,183.78358 C15.6702901,183.78358 15.2897132,182.8898 15.1500837,182.372849 C14.6702964,179.698897 15.8071783,177.355397 16.7920688,167.201877 C17.7783899,160.430224 17.1928168,156.044043 17.1382517,150.601269" id="Path-34" stroke="#000000" stroke-linecap="round"></path>
                    <path d="M23.0190228,179.430828 C25.2564465,180.009805 25.2100117,183.554315 22.0621084,183.181284 C22.0621084,183.181284 20.5491716,182.817605 20.4380747,181.233656 C20.4350349,181.190316 20.4336071,181.15258 20.4356455,181.112287 C20.3091137,179.308275 22.45972,171.456638 22.8433887,166.178688 C23.2270574,160.900738 22.7342586,155.293141 22.6796936,149.850368" id="Path-34" stroke="#000000" stroke-linecap="round" transform="translate(22.503977, 166.529543) scale(-1, 1) rotate(4.000000) translate(-22.503977, -166.529543) "></path>
                </g>
                <g id="Lightbulb" transform="translate(63.000000, 1.000000)">
                    <g id="Group-2" transform="translate(0.000000, 77.661622)">
                        <g id="Group">
                            <g id="Group-3" transform="translate(0.000000, 14.253053)">
                                <path d="M29.492889,2.63305345 C27.7346394,-0.310297476 16.8671247,0.278645842 14.7958184,2.63305345 C12.7245121,4.98746105 14.2401453,16.2141459 11.944054,21.2776902 C7.79117721,29.6266898 4.10395088,27.4938615 0.562931051,38.5242881 C0.150947408,40.3520515 -1.52459248,68.7500185 22.3206615,68.7500185 C46.1659154,68.7500185 45.4602025,45.6052865 43.2547238,38.5002618 C40.7520046,30.262943 33.3864913,26.1538673 32.484104,21.2776902 C29.8289328,15.3935563 31.2511387,5.57640437 29.492889,2.63305345 Z" id="Path-33" stroke="#F6BB43" stroke-width="2" fill="#F6BB43"></path>
                                <path d="M28.6151684,3.85594269 C26.9846288,1.12638132 17.4082625,1.67254689 15.487405,3.85594269 C13.5665475,6.0393385 14.9254892,17.5148312 12.7961739,22.2105862 C8.94494025,29.9531583 5.52553467,27.9752474 2.24171593,38.2044818 C1.85965661,39.899486 0.305819142,66.2347739 22.4190791,66.2347739 C44.5323391,66.2347739 43.8778854,44.7711537 41.8326011,38.1822006 C39.5116663,30.5431974 32.3696292,26.7325834 31.5327866,22.2105862 C29.0704731,16.7538449 30.245708,6.58550407 28.6151684,3.85594269 Z" id="Path-33" fill="url(#linearGradient-1)"></path>
                            </g>
                            <g id="Group-3" transform="translate(0.000000, 14.253053)">
                                <path d="M29.492889,2.63305345 C27.7346394,-0.310297476 16.8671247,0.278645842 14.7958184,2.63305345 C12.7245121,4.98746105 14.2401453,16.2141459 11.944054,21.2776902 C7.79117721,29.6266898 4.10395088,27.4938615 0.562931051,38.5242881 C0.150947408,40.3520515 -1.52459248,68.7500185 22.3206615,68.7500185 C46.1659154,68.7500185 45.4602025,45.6052865 43.2547238,38.5002618 C40.7520046,30.262943 33.3864913,26.1538673 32.484104,21.2776902 C29.8289328,15.3935563 31.2511387,5.57640437 29.492889,2.63305345 Z" id="Path-33" stroke="#FFFFFF" stroke-width="2" fill="url(#linearGradient-2)" opacity="0.269021739"></path>
                                <path d="M28.6151684,3.85594269 C26.9846288,1.12638132 17.4082625,1.67254689 15.487405,3.85594269 C13.5665475,6.0393385 14.9254892,17.5148312 12.7961739,22.2105862 C8.94494025,29.9531583 5.52553467,27.9752474 2.24171593,38.2044818 C1.85965661,39.899486 0.305819142,66.2347739 22.4190791,66.2347739 C44.5323391,66.2347739 43.8778854,44.7711537 41.8326011,38.1822006 C39.5116663,30.5431974 32.3696292,26.7325834 31.5327866,22.2105862 C29.0704731,16.7538449 30.245708,6.58550407 28.6151684,3.85594269 Z" id="Path-33" fill="#FFFFFF" opacity="0.13745471"></path>
                            </g>
                            <rect id="Rectangle-2" fill="#000000" x="13.8196393" y="8.870781" width="15.6756757" height="3.77579839" rx="1.8878992"></rect>
                            <rect id="Rectangle-2" fill="#000000" x="13.8196393" y="4.55558284" width="15.6756757" height="3.77579839" rx="1.8878992"></rect>
                            <path d="M17.3423423,2.84880708 C17.3423423,1.72696033 18.2210712,0.602896489 19.3164723,0.351811437 C19.3164723,0.351811437 20.5671958,0.000637168989 21.3963964,0.000637168989 C22.225597,0.000637168989 23.4763205,0.351811437 23.4763205,0.351811437 C24.5666024,0.609017299 25.4504505,1.7190413 25.4504505,2.84880708 L25.4504505,2.02263924 C25.4504505,3.14448599 24.5517616,4.05392247 23.4253477,4.05392247 L19.3674451,4.05392247 C18.2490117,4.05392247 17.3423423,3.15240502 17.3423423,2.02263924 L17.3423423,2.84880708 Z" id="Rectangle-3" fill="#000000"></path>
                        </g>
                    </g>
                    <path d="M21.375023,77.1394896 L21.375023,0.262236709" id="Line" stroke="#000000" stroke-width="2" stroke-linecap="square"></path>
                    <path d="M19.3976789,123.39372 C21.9147806,124.05103 21.6219851,127.679414 18.5468833,127.347025 C17.6290764,127.347025 17.2009274,126.33232 17.0438442,125.745427 C16.5040835,122.709698 17.7830756,120.049131 18.8910774,108.521873 C20.0006886,100.834037 19.3419188,95.8544205 19.2805332,89.6752578" id="Path-34" stroke="#000000" stroke-linecap="round"></path>
                    <path d="M25.8964006,122.405361 C28.4135023,123.062671 28.3612632,127.086742 24.8198719,126.663241 C24.8198719,126.663241 23.117818,126.250357 22.9928341,124.452105 C22.9894143,124.402901 22.987808,124.36006 22.9901012,124.314315 C22.8477529,122.266226 25.267185,113.352289 25.6988123,107.36025 C26.1304396,101.368211 25.576041,95.0019244 25.5146553,88.8227617" id="Path-34" stroke="#000000" stroke-linecap="round" transform="translate(25.316974, 107.758574) scale(-1, 1) rotate(4.000000) translate(-25.316974, -107.758574) "></path>
                </g>
            </g>
        </g>
    </g>
</svg>