<?xml version="1.0" encoding="UTF-8"?>
<svg width="335px" height="548px" viewBox="0 0 335 548" version="1.1" xmlns="http://www.w3.org/2000/svg" xmlns:xlink="http://www.w3.org/1999/xlink">
    <!-- Generator: Sketch 41.2 (35397) - http://www.bohemiancoding.com/sketch -->
    <title>Group 5</title>
    <desc>Created with Sketch.</desc>
    <defs>
        <linearGradient x1="50%" y1="35.7596839%" x2="50%" y2="102.805688%" id="linearGradient-1">
            <stop stop-color="#FFFFFF" offset="0%"></stop>
            <stop stop-color="#D8D8D8" offset="100%"></stop>
        </linearGradient>
        <linearGradient x1="50%" y1="0%" x2="50%" y2="100%" id="linearGradient-2">
            <stop stop-color="#FFFFFF" offset="0%"></stop>
            <stop stop-color="#FFEBDF" offset="100%"></stop>
        </linearGradient>
    </defs>
    <g id="Page-1" stroke="none" stroke-width="1" fill="none" fill-rule="evenodd">
        <g id="Desktop-Landscape-Copy" transform="translate(-121.000000, 0.000000)">
            <g id="Group-5" transform="translate(122.000000, -8.000000)">
                <g id="Lightbulbs" transform="translate(37.000000, 0.000000)">
                    <g id="Lightbulb">
                        <g id="Group-2" transform="translate(0.000000, 332.138887)">
                            <g id="Group">
                                <g id="Group-3" transform="translate(0.000000, 30.780380)">
                                    <path d="M62.1413958,4.50151137 C58.4367711,-1.64833667 35.5389624,-0.417796373 31.1747285,4.50151137 C26.8104946,9.42081912 30.0039275,32.877895 25.1660726,43.4576826 C16.4159783,60.9021126 8.64700761,56.4457734 1.18609341,79.4927865 C0.318045568,83.3117219 -3.21231007,142.646537 47.0295419,142.646537 C97.2713938,142.646537 95.7844596,94.2878503 91.137525,79.4425859 C85.864306,62.2315022 70.3451997,53.6459847 68.4438734,43.4576826 C62.8494386,31.1633521 65.8460205,10.6513594 62.1413958,4.50151137 Z" id="Path-33" stroke="#F6BB43" stroke-width="2" fill="#F6BB43"></path>
                                    <path d="M60.2920421,7.05662058 C56.8565018,1.3534652 36.6791375,2.49462551 32.6318987,7.05662058 C28.5846598,11.6186156 31.4479443,35.5955514 26.9614857,45.4068789 C18.8469523,61.5842371 11.6422788,57.4515829 4.72328623,78.8245821 C3.91828883,82.3661301 0.644359674,137.391176 47.2369074,137.391176 C93.8294551,137.391176 92.450524,92.5450101 88.1411183,78.7780278 C83.2509182,62.8170668 68.2026756,54.8551562 66.4394517,45.4068789 C61.2513672,34.005544 63.7275823,12.759776 60.2920421,7.05662058 Z" id="Path-33" fill="url(#linearGradient-1)"></path>
                                </g>
                                <g id="Group-3" opacity="0.686820652" transform="translate(0.000000, 30.780380)">
                                    <path d="M62.1413958,4.50151137 C58.4367711,-1.64833667 35.5389624,-0.417796373 31.1747285,4.50151137 C26.8104946,9.42081912 30.0039275,32.877895 25.1660726,43.4576826 C16.4159783,60.9021126 8.64700761,56.4457734 1.18609341,79.4927865 C0.318045568,83.3117219 -3.21231007,142.646537 47.0295419,142.646537 C97.2713938,142.646537 95.7844596,94.2878503 91.137525,79.4425859 C85.864306,62.2315022 70.3451997,53.6459847 68.4438734,43.4576826 C62.8494386,31.1633521 65.8460205,10.6513594 62.1413958,4.50151137 Z" id="Path-33" stroke="#FFFFFF" stroke-width="2" fill="url(#linearGradient-2)" opacity="0.269021739"></path>
                                    <path d="M60.2920421,7.05662058 C56.8565018,1.3534652 36.6791375,2.49462551 32.6318987,7.05662058 C28.5846598,11.6186156 31.4479443,35.5955514 26.9614857,45.4068789 C18.8469523,61.5842371 11.6422788,57.4515829 4.72328623,78.8245821 C3.91828883,82.3661301 0.644359674,137.391176 47.2369074,137.391176 C93.8294551,137.391176 92.450524,92.5450101 88.1411183,78.7780278 C83.2509182,62.8170668 68.2026756,54.8551562 66.4394517,45.4068789 C61.2513672,34.005544 63.7275823,12.759776 60.2920421,7.05662058 Z" id="Path-33" fill="#FFFFFF" opacity="0.13745471"></path>
                                </g>
                                <rect id="Rectangle-2" fill="#F0ECEB" x="29.117923" y="18.5346418" width="33.0285841" height="7.88916678" rx="3.94458339"></rect>
                                <rect id="Rectangle-2" fill="#F0ECEB" x="29.117923" y="9.51845123" width="33.0285841" height="7.88916678" rx="3.94458339"></rect>
                                <path d="M36.5402439,4.71349155 C36.5402439,3.05368021 37.8388505,1.39110022 39.4502345,1.01391395 C39.4502345,1.01391395 43.3349969,0.00133130318 45.0821192,0.00133130318 C46.8292414,0.00133130318 50.7140038,1.01391395 50.7140038,1.01391395 C52.3211472,1.39732291 53.6239944,3.04411912 53.6239944,4.71349155 L53.6239944,5.46492596 C53.6239944,7.12473729 52.2834611,8.47028023 50.6286829,8.47028023 L39.5355554,8.47028023 C37.8812906,8.47028023 36.5402439,7.13429839 36.5402439,5.46492596 L36.5402439,4.71349155 Z" id="Rectangle-3" fill="#F0ECEB"></path>
                            </g>
                        </g>
                        <path d="M45.0370856,331.047941 L45.0370856,2.29506454" id="Line" stroke="#EFECEA" stroke-width="2" stroke-linecap="square"></path>
                        <path d="M40.8708296,437.691696 C46.1743526,439.065084 45.5574335,446.646241 39.0782068,445.951748 C37.1443915,445.951748 36.2422832,443.831618 35.9113096,442.605363 C34.774036,436.262499 37.4688672,430.7035 39.8034223,406.618407 C42.1413686,390.555415 40.7533434,380.150985 40.624004,367.240221" id="Path-34" stroke="#2D3E50" stroke-width="2.5" stroke-linecap="round"></path>
                        <path d="M54.5636095,436.626615 C59.8671325,438.000003 59.7570648,446.40791 52.2953681,445.523046 C52.2953681,445.523046 48.7091474,444.660365 48.4458068,440.90309 C48.4386013,440.800284 48.4352168,440.710772 48.4400487,440.615193 C48.1401213,436.335907 53.2378549,417.711095 54.1472918,405.191307 C55.0567287,392.671519 53.888613,379.369777 53.7592737,366.459012" id="Path-34" stroke="#2D3E50" stroke-width="2.5" stroke-linecap="round" transform="translate(53.342761, 406.023567) scale(-1, 1) rotate(4.000000) translate(-53.342761, -406.023567) "></path>
                    </g>
                    <g id="Lightbulb" transform="translate(149.333333, 2.372093)">
                        <g id="Group-2" transform="translate(0.000000, 184.220592)">
                            <g id="Group">
                                <g id="Group-3" transform="translate(0.000000, 34.809567)">
                                    <path d="M69.9090703,5.24584771 C65.7413675,-1.73605448 39.9813327,-0.339026143 35.0715696,5.24584771 C30.1618065,10.8307216 33.7544185,37.4614624 28.3118317,49.4726604 C18.4679756,69.2772642 9.72788356,64.217997 1.33435508,90.3831949 C0.357801264,94.7188197 -3.61384883,162.081439 52.9082346,162.081439 C109.430318,162.081439 107.757517,107.179982 102.529716,90.3262024 C96.5973442,70.7865159 79.1383496,61.0394061 76.9993576,49.4726604 C70.7056184,35.5149476 74.0767731,12.2277499 69.9090703,5.24584771 Z" id="Path-33" stroke="#F6BB43" stroke-width="2" fill="#F6BB43"></path>
                                    <path d="M67.8285473,8.14665476 C63.9635646,1.67188127 41.2640297,2.96743681 36.710886,8.14665476 C32.1577423,13.3258727 35.3789373,40.5468088 30.3316714,51.6855765 C21.2028213,70.0516779 13.0975637,65.3598893 5.31369701,89.6245847 C4.40807493,93.6452925 0.724904633,156.115045 53.1415208,156.115045 C105.558137,156.115045 104.00684,105.201341 99.1587581,89.5717317 C93.657283,71.4513055 76.7280101,62.4121745 74.7443831,51.6855765 C68.9077881,38.7416786 71.6935301,14.6214282 67.8285473,8.14665476 Z" id="Path-33" fill="url(#linearGradient-1)"></path>
                                </g>
                                <g id="Group-3" transform="translate(0.000000, 34.809567)">
                                    <path d="M69.9090703,5.24584771 C65.7413675,-1.73605448 39.9813327,-0.339026143 35.0715696,5.24584771 C30.1618065,10.8307216 33.7544185,37.4614624 28.3118317,49.4726604 C18.4679756,69.2772642 9.72788356,64.217997 1.33435508,90.3831949 C0.357801264,94.7188197 -3.61384883,162.081439 52.9082346,162.081439 C109.430318,162.081439 107.757517,107.179982 102.529716,90.3262024 C96.5973442,70.7865159 79.1383496,61.0394061 76.9993576,49.4726604 C70.7056184,35.5149476 74.0767731,12.2277499 69.9090703,5.24584771 Z" id="Path-33" stroke="#FFFFFF" stroke-width="2" fill="url(#linearGradient-2)" opacity="0.269021739"></path>
                                    <path d="M67.8285473,8.14665476 C63.9635646,1.67188127 41.2640297,2.96743681 36.710886,8.14665476 C32.1577423,13.3258727 35.3789373,40.5468088 30.3316714,51.6855765 C21.2028213,70.0516779 13.0975637,65.3598893 5.31369701,89.6245847 C4.40807493,93.6452925 0.724904633,156.115045 53.1415208,156.115045 C105.558137,156.115045 104.00684,105.201341 99.1587581,89.5717317 C93.657283,71.4513055 76.7280101,62.4121745 74.7443831,51.6855765 C68.9077881,38.7416786 71.6935301,14.6214282 67.8285473,8.14665476 Z" id="Path-33" fill="#FFFFFF" opacity="0.13745471"></path>
                                </g>
                                <rect id="Rectangle-2" fill="#F5F2F1" x="32.7576634" y="21.0423177" width="37.1571572" height="8.95654502" rx="4.47827251"></rect>
                                <rect id="Rectangle-2" fill="#F5F2F1" x="32.7576634" y="10.8062663" width="37.1571572" height="8.95654502" rx="4.47827251"></rect>
                                <path d="M41.1077744,4.92936878 C41.1077744,3.2779677 42.4037228,1.61926572 44.0227845,1.23419569 C44.0227845,1.23419569 48.7518715,0.00151142411 50.7173841,0.00151142411 C52.6828966,0.00151142411 57.4237568,1.23693747 57.4237568,1.23693747 C59.0271702,1.62480989 60.3269937,3.27648068 60.3269937,4.92936878 L60.3269937,6.62615504 C60.3269937,8.27755612 58.9755355,9.6162812 57.3239907,9.6162812 L44.1107774,9.6162812 C42.4522647,9.6162812 41.1077744,8.27904314 41.1077744,6.62615504 L41.1077744,4.92936878 Z" id="Rectangle-3" fill="#F5F2F1"></path>
                            </g>
                        </g>
                        <path d="M50.6667213,182.982045 L50.6667213,0.622049869" id="Line" stroke="#EEEBE9" stroke-width="2" stroke-linecap="square"></path>
                        <path d="M45.9796833,303.701381 C51.9461466,305.260584 51.2521127,313.867446 43.9629827,313.07899 C41.7874404,313.07899 40.7725686,310.672014 40.4002233,309.27985 C39.1207905,302.078819 42.1524756,295.767705 44.7788501,268.423978 C47.4090396,250.187716 45.8475113,238.375602 45.7020045,223.718053" id="Path-34" stroke="#2D3E50" stroke-width="2.5" stroke-linecap="round"></path>
                        <path d="M61.3840607,302.356902 C67.3505241,303.916104 67.2266979,313.461573 58.8322891,312.45699 C58.8322891,312.45699 54.7977908,311.477591 54.5015326,307.211969 C54.4934264,307.095253 54.4896189,306.993631 54.4950547,306.88512 C54.1576365,302.026862 59.8925867,280.882173 60.9157032,266.6685 C61.9388198,252.454826 60.6246897,237.353402 60.4791829,222.695853" id="Path-34" stroke="#2D3E50" stroke-width="2.5" stroke-linecap="round" transform="translate(60.010606, 267.613362) scale(-1, 1) rotate(4.000000) translate(-60.010606, -267.613362) "></path>
                    </g>
                </g>
                <g id="Group-4" transform="translate(142.000000, 308.000000)" stroke="#F9C82C" stroke-width="1.2">
                    <path d="M157.98488,79.9304648 C165.476735,85.2584851 175.318272,97.888471 183.720423,99.6232436" id="Path-46"></path>
                    <path d="M130.137955,94.2259967 C132.403991,119.921272 132.403991,116.086333 134.670028,132.585002" id="Path-47"></path>
                    <path d="M86.4055051,90.452211 L81.5148104,130.752252" id="Path-48"></path>
                    <path d="M32.7902684,48.3269841 C16.6052518,48.3269841 16.6052518,50.0795618 0.420235194,51.9580223" id="Path-50"></path>
                    <path d="M21.1081875,1.49555673 L0.8460977,0.684176583" id="Path-51"></path>
                    <polyline id="Path-52" points="165.363508 8.62763301 171.3211 8.62763301 172.127998 8.62763301 178.47559 8.62763301 180.528696 8.62763301 181.335593 8.62763301 183.693527 8.62763301 184.065596 8.62763301 184.809735 8.62763301 185.181804 8.62763301"></polyline>
                    <path d="M167.2642,36.2100751 C176.225942,36.2100751 182.326704,41.0204634 191.058707,42.5711161" id="Path-53"></path>
                    <path d="M45.6647644,78.4332219 L24.2730183,93.8628929" id="Path-54"></path>
                </g>
                <g id="Group-4" transform="translate(0.000000, 455.000000)" stroke="#F9C82C" stroke-width="1.2">
                    <path d="M139.98488,41.9304648 C147.476735,47.2584851 157.318272,59.888471 165.720423,61.6232436" id="Path-46"></path>
                    <path d="M115.137955,61.2259967 C119.670028,82.4551469 117.403991,77.8952276 119.670028,99.5850016" id="Path-47"></path>
                    <path d="M66.4055051,60.452211 L61.5148104,100.752252" id="Path-48"></path>
                    <path d="M20.2620898,0.811380143 L0,0" id="Path-51"></path>
                    <polyline id="Path-52" points="149 1 154.957592 1 155.76449 1 162.112082 1 164.165188 1 164.972085 1 167.330019 1 167.702088 1 168.446227 1 168.818296 1"></polyline>
                    <path d="M32.6647644,40.4332219 L11.2730183,55.8628929" id="Path-54"></path>
                </g>
            </g>
        </g>
    </g>
</svg>