<?xml version="1.0" encoding="UTF-8"?>
<svg width="595px" height="390px" viewBox="0 0 595 390" version="1.1" xmlns="http://www.w3.org/2000/svg" xmlns:xlink="http://www.w3.org/1999/xlink">
    <!-- Generator: Sketch 41.2 (35397) - http://www.bohemiancoding.com/sketch -->
    <title>Group 3</title>
    <desc>Created with Sketch.</desc>
    <defs>
        <path d="M37.8691845,0.645778711 C37.1003262,1.50182651 37.8691845,19.1826445 37.1872226,21.0802813 C36.5052606,22.9779181 -2.84217094e-14,72.6672912 -2.84217094e-14,77.8170797 L-2.84217094e-14,355.395889 C-2.84217094e-14,355.395889 123.191087,378.006175 128.066771,378.006175 C132.942455,378.006175 200.56988,346.290885 200.56988,346.290885 L195.02488,77.8170797 L165.473195,20.8042491 C165.473195,20.8042491 166.066074,1.32174877 165.473195,0.564592765 C164.880316,-0.192563239 38.6380429,-0.210269087 37.8691845,0.645778711 Z" id="path-1"></path>
        <filter x="-50%" y="-50%" width="200%" height="200%" filterUnits="objectBoundingBox" id="filter-2">
            <feMorphology radius="2.5" operator="dilate" in="SourceAlpha" result="shadowSpreadOuter1"></feMorphology>
            <feOffset dx="3" dy="0" in="shadowSpreadOuter1" result="shadowOffsetOuter1"></feOffset>
            <feGaussianBlur stdDeviation="2" in="shadowOffsetOuter1" result="shadowBlurOuter1"></feGaussianBlur>
            <feComposite in="shadowBlurOuter1" in2="SourceAlpha" operator="out" result="shadowBlurOuter1"></feComposite>
            <feColorMatrix values="0 0 0 0 0   0 0 0 0 0   0 0 0 0 0  0 0 0 0.402032382 0" type="matrix" in="shadowBlurOuter1"></feColorMatrix>
        </filter>
    </defs>
    <g id="Page-1" stroke="none" stroke-width="1" fill="none" fill-rule="evenodd">
        <g id="A4" transform="translate(0.000000, -157.000000)">
            <g id="Group-3" transform="translate(-273.000000, 163.000000)">
                <path d="M0,295 L881.500909,295" id="Line" stroke="#FFFFFF" stroke-width="4" stroke-linecap="square"></path>
                <g id="Group" transform="translate(466.000000, 0.000000)">
                    <g id="Path">
                        <use fill="black" fill-opacity="1" filter="url(#filter-2)" xlink:href="#path-1"></use>
                        <use stroke="#000000" stroke-width="5" fill="#D8D8D8" fill-rule="evenodd" xlink:href="#path-1"></use>
                    </g>
                    <polygon id="Path-7" fill="#FFFFFF" points="195.023455 236 127.892433 255.776211 2 242.294923 2 353.017853 129.537427 376.013575 197.559022 344.50495"></polygon>
                    <polyline id="Path-2" stroke="#000000" stroke-width="4" points="129.801008 377.446896 124.329076 81.5484786 164.002647 21 38 21"></polyline>
                    <path d="M-33.4240158,200.247728 C-33.4240158,200.247728 -42.0880881,219.061188 -29.0631473,223.715047 C-16.0382064,228.368907 -6.87036617,219.068596 -0.676541859,221.391822 C5.51728245,223.715047 12.3309833,241.94498 21.1597688,239.522406 C29.9885544,237.099832 75.7435534,200.422531 75.7435534,200.422531 L-33.4240158,200.247728 Z" id="Path-5" fill="#000000" transform="translate(19.747912, 219.995641) rotate(-90.000000) translate(-19.747912, -219.995641) "></path>
                    <path d="M84.3774612,93.9533734 C77.4898998,90.8823271 68.0313345,91.8609969 63.0192439,93.9533734 C58.0071533,96.0457499 53,104.949931 53,110.291268 C53,113.461994 54.2738254,120.580433 57.0691774,128.737543 C59.8645294,136.894652 59.4154208,141.871788 69.3545789,143.100957 C93.8123772,146.125634 92.3473281,131.102243 101.271783,124.021806 C110.196237,116.941369 113.122597,110.291268 110.099703,104.949931 C107.076809,99.6085928 99.0842164,105.87199 95.4079033,104.949931 C91.7315902,104.027871 91.2650226,97.0244197 84.3774612,93.9533734 Z" id="Path-6" fill="#000000"></path>
                    <path d="M95.3934293,315.615584 C83.2158318,312.785549 84.6925486,306 73.4830871,306 C62.2736256,306 43.6520549,310.973435 37.1195033,325.247433 C30.5869517,339.521431 54.3038007,340.066967 65.3275438,348.434863 C76.3512868,356.802759 78.886522,363.267357 88.8256801,364.496526 C113.283478,367.521203 109.370586,363.114988 127.585606,360.121018 C127.585606,360.121018 132.323145,326.446959 127.585606,318.573254 C122.848067,310.69955 107.571027,318.445619 95.3934293,315.615584 Z" id="Path-6" fill="#000000"></path>
                    <path d="M122.864512,208.089953 C120.846181,204.075415 105.159018,198 96.4413417,198 C87.7236655,198 86.822157,208.089953 86.822157,208.089953 C86.822157,208.089953 84.9723038,221.510323 86.822157,224.134494 C88.6720101,226.758665 102.881398,236.641587 109.047624,237.294489 C115.213849,237.947391 117.181818,231.454563 119.09333,224.134494 C121.004843,216.814425 124.882843,212.104492 122.864512,208.089953 Z" id="Path-8" fill="#000000"></path>
                    <path d="M135,83.7029423 L187.982863,80" id="Path-4" stroke="#000000" stroke-width="3" stroke-linecap="round"></path>
                    <path d="M9,80 L118.767281,83.0791318" id="Path-3" stroke="#000000" stroke-width="3" stroke-linecap="round"></path>
                </g>
                <g id="Group-10" transform="translate(689.000000, 167.000000)" stroke="#FFFFFF">
                    <path d="M54,34.5463671 C89.4899578,34.5463671 108.697433,25.6041778 108.697433,19.4817229 C108.697433,8.72227477 83.8233765,0 54,0 C24.1766235,0 0,8.72226444 0,19.4817229 C0,30.0472565 53.4624735,34.5463671 54,34.5463671 Z" id="Oval-4" stroke-width="3"></path>
                    <path d="M0.200196004,20.2422637 L11.2281583,198.221423 C11.2962699,199.320669 12.0962271,200.693318 13.0443029,201.267277 C13.0443029,201.267277 28.0913374,211.760564 53.1926004,211.760564 C78.2938634,211.760564 93.7608776,201.246825 93.7608776,201.246825 C94.6975734,200.675188 95.518357,199.328342 95.5953409,198.221423 L107.835011,22.2326246 C107.911461,21.1333786 107.871156,19.3592107 107.604713,18.2728444 C107.604713,18.2728444 107.973436,9.79776847 89.1424322,4.5807429 C75.6946513,0.625416138 56.5980615,0.129141383 56.5980615,0.129141383 C56.5980615,0.129141383 34.4949196,0.636643228 25.0954284,3.22203433 C1.75849694,9.27512952 1.3141975,15.5884564 1.3141975,15.5884564" id="Path-5" stroke-width="3" fill-opacity="0.469999999" fill="#FFFFFF"></path>
                    <path d="M11.9805366,196.822924 L7.80391004,115.992032 C7.80391004,115.992032 19.4071505,112.258122 49.2352941,120.934922 C79.0634377,129.611722 100.058824,115.992032 100.058824,115.992032 L94.6064297,199.81243 C94.6064297,199.81243 77.8475488,211.301182 53.9313668,211.301182 C30.0151847,211.301182 12.0618078,199.81243 12.0618078,199.81243" id="Line" stroke-width="2" stroke-linecap="square" fill="#FFFFFF"></path>
                </g>
            </g>
        </g>
    </g>
</svg>