<?xml version="1.0" encoding="UTF-8"?>
<svg width="71px" height="46px" viewBox="0 0 71 46" version="1.1" xmlns="http://www.w3.org/2000/svg" xmlns:xlink="http://www.w3.org/1999/xlink">
    <!-- Generator: Sketch 41.2 (35397) - http://www.bohemiancoding.com/sketch -->
    <title>Pen</title>
    <desc>Created with Sketch.</desc>
    <defs>
        <filter x="-50%" y="-50%" width="200%" height="200%" filterUnits="objectBoundingBox" id="filter-1">
            <feOffset dx="0" dy="-1" in="SourceAlpha" result="shadowOffsetOuter1"></feOffset>
            <feGaussianBlur stdDeviation="2" in="shadowOffsetOuter1" result="shadowBlurOuter1"></feGaussianBlur>
            <feColorMatrix values="0 0 0 0 0   0 0 0 0 0   0 0 0 0 0  0 0 0 0.153900589 0" type="matrix" in="shadowBlurOuter1" result="shadowMatrixOuter1"></feColorMatrix>
            <feMerge>
                <feMergeNode in="shadowMatrixOuter1"></feMergeNode>
                <feMergeNode in="SourceGraphic"></feMergeNode>
            </feMerge>
        </filter>
        <rect id="path-2" x="2.16448374" y="15.3639388" width="8.02622497" height="7.23008885"></rect>
        <mask id="mask-3" maskContentUnits="userSpaceOnUse" maskUnits="objectBoundingBox" x="0" y="0" width="8.02622497" height="7.23008885" fill="white">
            <use xlink:href="#path-2"></use>
        </mask>
        <path d="M3.02544701,22.5441081 C3.01238462,21.9893585 3.44438098,21.5553077 3.99476127,21.5747852 L10.2407821,21.7958258 C10.789182,21.8152331 11.2263143,22.2863414 11.217374,22.8340124 L10.5947104,60.9775932 C10.5586373,63.1873834 10.1580803,66.7225848 9.54423332,68.8520026 C9.54423332,68.8520026 9.3272108,71.970718 7.27960737,71.8982553 C5.23200394,71.8257926 4.98938488,68.629274 4.98938488,68.629274 C4.45357108,66.4859171 3.97710761,62.9604048 3.92486153,60.7415537 L3.02544701,22.5441081 Z" id="path-4"></path>
        <mask id="mask-5" maskContentUnits="userSpaceOnUse" maskUnits="objectBoundingBox" x="0" y="0" width="8.19235028" height="50.3253443" fill="white">
            <use xlink:href="#path-4"></use>
        </mask>
    </defs>
    <g id="Page-1" stroke="none" stroke-width="1" fill="none" fill-rule="evenodd">
        <g id="Desktop-Landscape-Copy" transform="translate(-678.000000, -406.000000)">
            <g id="Pen" filter="url(#filter-1)" transform="translate(713.349411, 430.461050) rotate(-58.000000) translate(-713.349411, -430.461050) translate(706.849411, 393.961050)">
                <path d="M3.44950492,14.3084821 C3.44950492,14.3084821 2.72408425,11.8598314 2.27994196,10.6698618 C1.83579967,9.47989221 0.598174444,6.66904608 0.598174444,6.66904608 C0.598174444,6.66904608 2.34940431,5.16959177 3.44950492,3.60416126 C4.54960553,2.03873075 5.05159901,0.133963965 5.05159901,0.133963965 L5.92841397,0.133963965 C5.92841397,0.133963965 6.35815382,1.84592143 7.54103409,3.60416126 C8.72391437,5.36240108 10.2230593,6.66904608 10.2230593,6.66904608 C10.2230593,6.66904608 9.34668167,9.26892478 9.02564958,10.6698618 C8.70461749,12.0707988 8.47244236,14.3084821 8.47244236,14.3084821" id="Path-36" stroke="#000000" stroke-width="0.2" fill="#FFCF55"></path>
                <ellipse id="Oval-6" fill="#000000" cx="5.51487265" cy="7.62564982" rx="0.445901387" ry="0.451880553"></ellipse>
                <path d="M5.50425855,0.257161516 L5.50425855,7.48725037" id="Line" stroke="#000000" stroke-width="0.3" stroke-linecap="square"></path>
                <path d="M6.07286726,18.5282203 C8.1580339,18.5282203 9.86439661,16.742708 9.86439661,15.6861445 C9.86439661,14.629581 8.17403506,13.7730671 6.08886843,13.7730671 C4.00370179,13.7730671 2.31334025,14.629581 2.31334025,15.6861445 C2.31334025,16.742708 3.98770063,18.5282203 6.07286726,18.5282203 Z" id="Oval-5" stroke="#000000" stroke-width="0.2" fill="#4A4A4A" transform="translate(6.088868, 16.150644) rotate(-1.000000) translate(-6.088868, -16.150644) "></path>
                <use id="Rectangle-5" stroke="#000000" mask="url(#mask-3)" stroke-width="0.4" fill="#3CAEDA" transform="translate(6.177596, 18.978983) rotate(-1.000000) translate(-6.177596, -18.978983) " xlink:href="#path-2"></use>
                <use id="Rectangle-4" stroke="#000000" mask="url(#mask-5)" stroke-width="0.4" fill="#4FC0E8" transform="translate(7.121334, 46.736827) rotate(-2.000000) translate(-7.121334, -46.736827) " xlink:href="#path-4"></use>
            </g>
        </g>
    </g>
</svg>