<?xml version="1.0" encoding="UTF-8"?>
<svg width="60px" height="62px" viewBox="0 0 60 62" version="1.1" xmlns="http://www.w3.org/2000/svg" xmlns:xlink="http://www.w3.org/1999/xlink">
    <!-- Generator: Sketch 41.2 (35397) - http://www.bohemiancoding.com/sketch -->
    <title>Scissors</title>
    <desc>Created with Sketch.</desc>
    <defs></defs>
    <g id="Page-1" stroke="none" stroke-width="1" fill="none" fill-rule="evenodd">
        <g id="Desktop-Landscape-Copy" transform="translate(-485.000000, -420.000000)" stroke="#000000">
            <g id="Scissors" transform="translate(520.219872, 447.956138) rotate(45.000000) translate(-520.219872, -447.956138) translate(503.219872, 411.956138)">
                <path d="M14.2446947,0.103210607 C13.9994668,0.103210607 13.4204537,7.07337786 13.1485881,12.2028352 C12.8767225,17.3322925 12.3106445,30.2322235 12.3106445,32.8429728 C12.3106445,37.9293422 11.8094973,40.5711445 11.597442,42.7550312 C10.8226153,48.5361048 8.62224542,51.2040879 8.62224542,51.2040879 C8.62224542,51.2040879 4.80086865,52.6009547 2.86155483,55.4730867 C1.74206693,57.131053 -0.0865980175,61.5957921 0.570945697,65.5080943 C1.05247961,68.3731603 2.86155483,71.4223986 7.27053849,71.8951824 C16.3726156,72.3410227 17.6933896,60.9046717 16.3726156,57.2664661 C15.0518417,53.6282605 12.3106445,50.7496707 12.3106445,50.7496707 C12.3106445,50.7496707 14.0547508,47.8988949 14.5032575,46.3610839 C14.9517642,44.8232729 14.8077783,41.9171174 15.0518417,41.9171174 C15.327137,41.9171174 16.8432269,43.0090978 17.9661471,44.8581692 C19.0890673,46.7072406 21.077327,51.6271959 21.077327,52.2625842 C21.077327,53.3210804 16.6374155,58.621315 17.8370036,64.7640017 C18.9837132,69.5591325 22.5921675,72.2307625 28.0043145,70.9177447 C34.011028,69.4604817 34.7589496,61.344988 32.9478386,56.2092847 C30.833286,51.4151148 23.6404378,50.7496707 23.6404378,50.7496707 C23.6404378,50.7496707 20.1118078,44.7640957 20.5945674,44.0602061 C20.8034751,43.7556073 22.865604,46.7341089 25.1650723,48.947614 C27.4645405,51.1611191 31.849908,54.265019 31.849908,54.265019 L32.9478386,53.238547 C32.9478386,53.238547 30.6326656,49.7479157 28.0043145,46.0604099 C25.3759635,42.3729041 23.4062515,39.7495073 22.9076744,39.7495073 C21.7924397,39.7495073 18.6564717,39.7495073 16.8273029,37.5015017 C14.9981341,35.2534961 14.8067084,30.5767266 15.0518417,29.3344286 C15.296975,28.0921307 17.604288,27.1698511 17.604288,24.6275531 C17.604288,22.085255 14.5032575,20.3023879 14.5032575,20.3023879 C14.5032575,20.3023879 15.0518417,0.103210607 14.2446947,0.103210607 Z" id="Path-11"></path>
                <path d="M2.59703639,59.3364085 C1.98620994,61.9476255 2.23067954,65.8197562 3.60418836,67.8715846 C4.97769717,69.9234131 9.47272247,71.7237924 12.6437807,68.4789786 C18.0759291,62.9204838 14.0259292,52.6873691 7.57817022,53.5636576 C3.53451845,54.7853531 3.06431328,57.3388503 2.59703639,59.3364085 Z" id="Path-12" transform="translate(8.730029, 61.884405) rotate(11.000000) translate(-8.730029, -61.884405) "></path>
                <path d="M19.6903618,58.9190135 C18.8561524,61.4290138 19.3240049,65.4023612 20.6975137,67.4541896 C22.0710225,69.5060181 26.5660478,71.3063974 29.737106,68.0615836 C35.1692545,62.5030888 31.5442022,51.8559144 24.6714956,53.1462626 C21.5025959,53.9409822 20.3466708,56.9442861 19.6903618,58.9190135 Z" id="Path-12" transform="translate(25.820473, 61.439704) rotate(-2.000000) translate(-25.820473, -61.439704) "></path>
                <ellipse id="Oval-2" stroke-width="0.7" cx="15.0209267" cy="24.3305209" rx="1.28751792" ry="1.32455288"></ellipse>
                <path d="M14.2207532,23.5651427 L15.7657747,25.1546062" id="Line" stroke-linecap="square"></path>
                <path d="M9.0951198,50.4754305 C9.77160134,50.2197189 10.5409076,50.1408926 11.3015938,49.9400983 C12.06228,49.739304 12.6219162,49.4686811 13.2121808,49.2455597" id="Path-13"></path>
                <path d="M20.4502563,50.503238 C20.4502563,50.503238 21.3646788,50.5306305 21.8222643,50.503238 C22.2798498,50.4758455 23.4968693,50.3773929 23.4968693,50.3773929" id="Path-13" transform="translate(21.973563, 50.877393) scale(-1, 1) translate(-21.973563, -50.877393) "></path>
                <path d="M19.8163001,49.0503663 C19.8163001,49.0503663 20.6226455,49.0777588 21.080231,49.0503663 C21.5378165,49.0229738 22.754836,48.9245212 22.754836,48.9245212" id="Path-13" transform="translate(21.285568, 49.424521) scale(-1, 1) translate(-21.285568, -49.424521) "></path>
                <path d="M19.3442486,47.5049556 C19.3442486,47.5049556 20.2162251,47.5323481 20.6738106,47.5049556 C21.1313961,47.4775631 21.9363873,47.3718772 21.9363873,47.3718772" id="Path-13" transform="translate(20.640318, 47.871877) scale(-1, 1) translate(-20.640318, -47.871877) "></path>
                <path d="M18.6220513,46.0599212 C18.6220513,46.0599212 19.4940278,46.0873137 19.9516133,46.0599212 C20.4091988,46.0325287 21.21419,45.9268428 21.21419,45.9268428" id="Path-13" transform="translate(19.918121, 46.426843) scale(-1, 1) translate(-19.918121, -46.426843) "></path>
                <path d="M17.6231844,44.5791408 C17.6231844,44.5791408 18.1873033,44.6374202 19.0347734,44.5791408 C19.8822436,44.5208613 20.6173894,44.373233 20.6173894,44.373233" id="Path-13" transform="translate(19.120287, 44.873233) scale(-1, 1) translate(-19.120287, -44.873233) "></path>
                <path d="M10.0512572,48.6053439 C10.6792321,48.2576284 11.4197321,48.1682617 12.1793691,47.8681821 C12.9390062,47.5681025 14.3074811,46.855644 14.3074811,46.855644" id="Path-14"></path>
                <path d="M10.6695426,46.8151728 C11.2318846,46.513603 11.9968768,46.2132619 12.7178916,45.8955281 C13.4389064,45.5777944 14.7662406,44.9758835 14.7662406,44.9758835" id="Path-15"></path>
                <path d="M11.2138538,44.9239072 C11.2138538,44.9239072 12.3401903,44.4424293 12.9374716,44.1644722 C13.534753,43.8865152 14.2249099,43.5226508 14.834516,43.2389582" id="Path-16"></path>
                <path d="M11.5687217,43.2721713 L15.0487596,41.8387759" id="Path-17"></path>
                <path d="M12.1392385,37.3696763 C12.1392385,37.3696763 12.8740437,39.3329516 13.4464791,40.214084 C14.0189146,41.0952165 15.09295,41.9162342 15.09295,41.9162342" id="Path-17"></path>
                <path d="M11.7233253,41.5436949 C11.7233253,41.5436949 12.4571438,41.3408853 12.8665742,41.1852046 C13.2760046,41.029524 13.8456307,40.7367155 13.8456307,40.7367155" id="Path-18"></path>
                <path d="M20.8938763,44.1409579 C21.2431387,44.0907883 22.0889784,44.2835038 22.4537343,43.8878528 C22.8184903,43.4922018 22.5082427,42.7289433 22.694463,42.5187953 C22.8806833,42.3086472 23.6416258,42.6515329 24.0135923,42.161788 C24.3855589,41.672043 23.9643268,40.889983 24.0135923,40.6216797" id="Path-19" stroke-width="0.8"></path>
                <path d="M22.0419844,45.5470959 C22.3912467,45.4969264 23.2370864,45.6896418 23.6018424,45.2939908 C23.9665983,44.8983398 23.6563508,44.1350814 23.8425711,43.9249333 C24.0287913,43.7147853 24.7897338,44.057671 25.1617004,43.567926 C25.5336669,43.078181 25.1124348,42.296121 25.1617004,42.0278178" id="Path-19" stroke-width="0.8"></path>
                <path d="M23.2668783,47.1500688 C23.6161406,47.0998992 24.4619803,47.2926147 24.8267363,46.8969636 C25.1914922,46.5013126 24.8812447,45.7380542 25.067465,45.5279062 C25.2536852,45.3177581 26.0146277,45.6606438 26.3865943,45.1708988 C26.7585608,44.6811539 26.3373287,43.8990939 26.3865943,43.6307906" id="Path-19" stroke-width="0.8"></path>
                <path d="M24.9969848,48.6681283 C25.2937271,48.625503 26.0123745,48.789239 26.3222806,48.4530837 C26.6321867,48.1169283 26.3685923,47.4684442 26.5268099,47.289897 C26.6850274,47.1113497 27.3315439,47.4026743 27.6475763,46.9865743 C27.9636088,46.5704743 27.6057191,45.9060158 27.6475763,45.6780584" id="Path-19" stroke-width="0.8"></path>
                <path d="M26.2514779,49.8914374 C26.4054293,49.8693232 27.6349476,49.9028962 28.275328,49.1614996 C28.9157084,48.4201031 28.8940831,47.2637745 28.9142246,47.1540826" id="Path-19" stroke-width="0.8"></path>
                <path d="M27.9157315,51.2536192 C28.0696829,51.231505 29.1626543,51.4923597 29.8030347,50.7509631 C30.4434151,50.0095665 30.3602078,49.4177601 30.3803493,49.3080681" id="Path-19" stroke-width="0.8"></path>
                <path d="M30.0490341,52.8680508 C30.1616354,52.8518763 30.7824256,52.9902613 31.2508053,52.4479975 C31.719185,51.9057337 31.6583264,51.4728814 31.6730581,51.3926518" id="Path-19" stroke-width="0.8"></path>
                <path d="M16.549199,40.2943156 L15.3431862,39.4324795" id="Path-20"></path>
                <path d="M18.8091313,40.3173442 C18.4529185,40.108615 18.0967058,39.8998858 17.740493,39.6911566" id="Path-21"></path>
                <path d="M19.3805954,41.9539508 L18.2846662,41.3779213" id="Path-22"></path>
                <path d="M20.365432,43.5329929 L19.2695028,42.9569633" id="Path-22" transform="translate(19.817467, 43.456963) rotate(-22.000000) translate(-19.817467, -43.456963) "></path>
                <path d="M21.8141974,41.9356527 L20.6587801,41.4769743" id="Path-23"></path>
                <path d="M15.8767388,37.963068 C15.6540453,37.5047703 15.2605282,36.7228088 15.247416,36.6958242" id="Path-25"></path>
                <path d="M14.0592186,38.4617348 L13.9046724,37.1983185" id="Path-26" transform="translate(14.404672, 37.830027) rotate(-12.000000) translate(-14.404672, -37.830027) "></path>
                <path d="M17.4727927,42.4090977 C17.1145357,42.0891163 16.7562787,41.769135 16.3980216,41.4491536" id="Path-27"></path>
                <polyline id="Path-28" points="14.3352626 35.6914423 14.3352626 35.4365508 14.3352626 35.0803967 14.3352626 34.8296062 14.3352626 34.6094153 14.3352626 34.556418"></polyline>
                <polyline id="Path-28" points="13.1000396 36.5820441 13.1000396 36.3271526 13.1000396 35.9709986 13.1000396 35.720208 13.1000396 35.5000171 13.1000396 35.4470199"></polyline>
                <polyline id="Path-29" points="13.6631697 33.5861714 13.6631697 33.1911622 13.6631697 33.0738108 13.6631697 32.9994144 13.6631697 32.8506217 13.6631697 32.8134235 13.6631697 32.7762253 13.6631697 32.7390271 13.6631697 32.701829 13.6631697 32.6646308 13.6631697 32.5158381 13.6631697 32.4786399 13.6631697 32.4042435 13.6631697 32.3670453"></polyline>
                <polyline id="Path-29" points="13.8617856 31.4065088 13.8617856 31.0114996 13.8617856 30.8941482 13.8617856 30.8197518 13.8617856 30.6709591 13.8617856 30.6337609 13.8617856 30.5965627 13.8617856 30.5593646 13.8617856 30.5221664 13.8617856 30.4849682 13.8617856 30.3361755 13.8617856 30.2989773 13.8617856 30.224581 13.8617856 30.1873828"></polyline>
            </g>
        </g>
    </g>
</svg>