<?xml version="1.0" encoding="UTF-8"?>
<svg width="111px" height="127px" viewBox="0 0 111 127" version="1.1" xmlns="http://www.w3.org/2000/svg" xmlns:xlink="http://www.w3.org/1999/xlink">
    <!-- Generator: Sketch 41.2 (35397) - http://www.bohemiancoding.com/sketch -->
    <title>Group 14</title>
    <desc>Created with Sketch.</desc>
    <defs></defs>
    <g id="Page-1" stroke="none" stroke-width="1" fill="none" fill-rule="evenodd">
        <g id="Group-14" transform="translate(57.500000, 65.500000) rotate(-26.000000) translate(-57.500000, -65.500000) translate(-18.000000, 6.000000)">
            <g id="Scissors" transform="translate(56.240783, 56.608315) rotate(45.000000) translate(-56.240783, -56.608315) translate(30.740783, 2.608315)" stroke="#FFFFFF">
                <path d="M21.3917509,0.154994941 C21.0234837,0.154994941 20.1539597,10.6223363 19.7456898,18.3254199 C19.3374198,26.0285034 18.4873209,45.4007762 18.4873209,49.3214288 C18.4873209,56.9598058 17.7347307,60.9270917 17.41628,64.20671 C16.2526959,72.8883482 12.9483243,76.8949509 12.9483243,76.8949509 C12.9483243,76.8949509 7.2096306,78.992674 4.29729592,83.305854 C2.6161222,85.7956794 -0.13004724,92.5005326 0.857408911,98.3757722 C1.58054505,102.678341 4.29729592,107.257488 10.9184193,107.967484 C24.5873235,108.637017 26.5707754,91.4626532 24.5873235,85.999034 C22.6038716,80.5354147 18.4873209,76.2125368 18.4873209,76.2125368 C18.4873209,76.2125368 21.1065057,71.9314281 21.7800437,69.6220441 C22.4535817,67.3126601 22.2373531,62.9483858 22.6038716,62.9483858 C23.017292,62.9483858 25.2940567,64.5882506 26.9803848,67.3650651 C28.666713,70.1418796 31.6525513,77.5303468 31.6525513,78.4845313 C31.6525513,80.0741117 24.9849826,88.0336574 26.7864456,97.2583426 C28.5084991,104.459356 33.9274398,108.471436 42.0550483,106.499631 C51.0755377,104.311209 52.1987175,92.1238914 49.4789095,84.411428 C46.3034126,77.2118573 35.5016636,76.2125368 35.5016636,76.2125368 C35.5016636,76.2125368 30.2025978,67.2237917 30.9275746,66.1667363 C31.2412985,65.7093098 34.3380689,70.1822286 37.7912599,73.5063259 C41.2444509,76.8304231 47.830109,81.491657 47.830109,81.491657 L49.4789095,79.9501685 C49.4789095,79.9501685 46.002134,74.7081666 42.0550483,69.1705115 C38.1079626,63.6328564 35.1499779,59.6932108 34.4012474,59.6932108 C32.7264609,59.6932108 28.0170691,59.6932108 25.2701431,56.3173029 C22.5232171,52.941395 22.2357464,45.9181285 22.6038716,44.0525267 C22.9719967,42.1869248 26.4369685,40.8019056 26.4369685,36.9840487 C26.4369685,33.1661918 21.7800437,30.4887985 21.7800437,30.4887985 C21.7800437,30.4887985 22.6038716,0.154994941 21.3917509,0.154994941 Z" id="Path-11"></path>
                <path d="M3.90005943,89.1075381 C2.9827602,93.0288931 3.34988866,98.8438057 5.41253438,101.925107 C7.47518011,105.006409 14.2255152,107.710101 18.987603,102.837252 C27.1452483,94.4898681 21.0632233,79.1224455 11.3804005,80.4383982 C5.30790867,82.2730608 4.6017853,86.1077359 3.90005943,89.1075381 Z" id="Path-12" transform="translate(13.110187, 92.933953) rotate(11.000000) translate(-13.110187, -92.933953) "></path>
                <path d="M29.5696977,88.4807216 C28.3169367,92.2500758 29.0195269,98.2169892 31.0821726,101.298291 C33.1448183,104.379593 39.8951534,107.083285 44.6572412,102.210435 C52.8148866,93.8630515 47.3710201,77.8738212 37.0500387,79.8115817 C32.2911924,81.0050397 30.5552997,85.5152051 29.5696977,88.4807216 Z" id="Path-12" transform="translate(38.775497, 92.266130) rotate(-2.000000) translate(-38.775497, -92.266130) "></path>
                <ellipse id="Oval-2" stroke-width="0.7" cx="22.5574454" cy="36.5379853" rx="1.93351021" ry="1.9891269"></ellipse>
                <path d="M21.3557972,35.3885904 L23.6760094,37.7755426" id="Line" stroke-linecap="square"></path>
                <path d="M13.6584562,75.8007008 C14.6743519,75.4166897 15.8296457,75.2983136 16.9719945,74.9967739 C18.1143433,74.6952342 18.9547684,74.2888303 19.8411891,73.9537612" id="Path-13"></path>
                <path d="M30.7108577,75.8424602 C30.7108577,75.8424602 32.0840775,75.8835965 32.7712495,75.8424602 C33.4584215,75.801324 35.2860618,75.6534743 35.2860618,75.6534743" id="Path-13" transform="translate(32.998460, 76.153474) scale(-1, 1) translate(-32.998460, -76.153474) "></path>
                <path d="M29.7588236,73.6606326 C29.7588236,73.6606326 30.9697404,73.7017688 31.6569124,73.6606326 C32.3440844,73.6194963 34.1717246,73.4716466 34.1717246,73.4716466" id="Path-13" transform="translate(31.965274, 73.971647) scale(-1, 1) translate(-31.965274, -73.971647) "></path>
                <path d="M29.0499276,71.3398358 C29.0499276,71.3398358 30.3594048,71.3809721 31.0465768,71.3398358 C31.7337488,71.2986996 32.9426319,71.1399874 32.9426319,71.1399874" id="Path-13" transform="translate(30.996280, 71.639987) scale(-1, 1) translate(-30.996280, -71.639987) "></path>
                <path d="M27.9653789,69.1697776 C27.9653789,69.1697776 29.2748561,69.2109139 29.9620281,69.1697776 C30.6492001,69.1286414 31.8580832,68.9699292 31.8580832,68.9699292" id="Path-13" transform="translate(29.911731, 69.469929) scale(-1, 1) translate(-29.911731, -69.469929) "></path>
                <path d="M26.4653458,66.9460384 C26.4653458,66.9460384 27.3125028,67.0335587 28.585178,66.9460384 C29.8578532,66.8585181 30.9618472,66.6368196 30.9618472,66.6368196" id="Path-13" transform="translate(28.713597, 67.136820) scale(-1, 1) translate(-28.713597, -67.136820) "></path>
                <path d="M15.0943208,72.992327 C16.0373725,72.4701507 17.1494069,72.3359456 18.2901801,71.8853056 C19.4309534,71.4346657 21.4860395,70.3647422 21.4860395,70.3647422" id="Path-14"></path>
                <path d="M16.0228213,70.3039651 C16.8673099,69.8510873 18.016125,69.4000547 19.0988979,68.9229029 C20.1816708,68.4457511 22.1749745,67.5418407 22.1749745,67.5418407" id="Path-15"></path>
                <path d="M16.8402323,67.4637861 C16.8402323,67.4637861 18.5316908,66.7407341 19.4286488,66.3233163 C20.3256069,65.9058986 21.3620395,65.3594709 22.2775061,64.9334399" id="Path-16"></path>
                <path d="M17.3731497,64.9833172 L22.5992431,62.8307377" id="Path-17"></path>
                <path d="M18.2299146,56.1193361 C18.2299146,56.1193361 19.3333969,59.0676546 20.193043,60.3908817 C21.0526892,61.7141087 22.6656053,62.9470595 22.6656053,62.9470595" id="Path-17"></path>
                <path d="M17.6053233,62.3876043 C17.6053233,62.3876043 18.7073239,62.0830381 19.3221797,61.8492471 C19.9370355,61.6154561 20.7924627,61.1757354 20.7924627,61.1757354" id="Path-18"></path>
                <path d="M31.3770572,66.288004 C31.9015565,66.2126627 33.1717833,66.5020701 33.7195499,65.9079073 C34.2673165,65.3137445 33.8014071,64.1675329 34.0810605,63.8519463 C34.3607139,63.5363597 35.5034476,64.051283 36.0620426,63.3158161 C36.6206377,62.5803491 35.9880589,61.4059025 36.0620426,61.0029823" id="Path-19" stroke-width="0.8"></path>
                <path d="M33.1012108,68.3996502 C33.6257101,68.3243088 34.8959369,68.6137163 35.4437035,68.0195535 C35.9914701,67.4253906 35.5255607,66.279179 35.8052141,65.9635924 C36.0848675,65.6480059 37.2276012,66.1629292 37.7861962,65.4274622 C38.3447913,64.6919952 37.7122125,63.5175486 37.7861962,63.1146284" id="Path-19" stroke-width="0.8"></path>
                <path d="M34.9406763,70.80689 C35.4651756,70.7315486 36.7354024,71.0209561 37.283169,70.4267933 C37.8309357,69.8326304 37.3650262,68.6864188 37.6446796,68.3708323 C37.924333,68.0552457 39.0670667,68.570169 39.6256618,67.834702 C40.1842568,67.0992351 39.551678,65.9247885 39.6256618,65.5218682" id="Path-19" stroke-width="0.8"></path>
                <path d="M37.5388371,73.0866126 C37.9844653,73.0226006 39.0636829,73.2684887 39.5290796,72.7636726 C39.9944764,72.2588564 39.5986276,71.2850053 39.8362284,71.0168748 C40.0738292,70.7487443 41.0447253,71.1862364 41.5193222,70.5613647 C41.993919,69.9364929 41.4564637,68.9386526 41.5193222,68.5963211" id="Path-19" stroke-width="0.8"></path>
                <path d="M39.4227529,74.9236981 C39.653947,74.8904884 41.5003572,74.9409062 42.4620386,73.8275253 C43.4237199,72.7141444 43.3912445,70.9776459 43.4214917,70.8129177" id="Path-19" stroke-width="0.8"></path>
                <path d="M41.9220201,76.9693337 C42.1532142,76.936124 43.7945672,77.3278585 44.7562486,76.2144776 C45.7179299,75.1010967 45.5929747,74.2123605 45.6232219,74.0476323" id="Path-19" stroke-width="0.8"></path>
                <path d="M45.1256743,79.3937815 C45.2947717,79.3694916 46.2270338,79.5773092 46.9304158,78.7629729 C47.6337977,77.9486366 47.5424044,77.2986074 47.5645275,77.1781237" id="Path-19" stroke-width="0.8"></path>
                <path d="M24.8525048,60.5113682 L23.0413937,59.2171192" id="Path-20"></path>
                <path d="M28.2463234,60.545951 L26.6415123,59.6055834" id="Path-21"></path>
                <path d="M29.1045108,63.0036998 L27.458716,62.1386564" id="Path-22"></path>
                <path d="M30.4894974,65.3932691 L28.8437026,64.5282256" id="Path-22" transform="translate(29.666600, 65.028226) rotate(-22.000000) translate(-29.666600, -65.028226) "></path>
                <path d="M32.7591351,62.976221 L31.024005,62.2874076" id="Path-23"></path>
                <path d="M23.8426481,57.010453 C23.5082216,56.3222115 22.9172633,55.1479128 22.8975722,55.1073891" id="Path-25"></path>
                <path d="M21.1186972,57.8114765 L20.8866098,55.9141604" id="Path-26" transform="translate(21.386610, 56.862818) rotate(-12.000000) translate(-21.386610, -56.862818) "></path>
                <path d="M26.2394975,63.6872096 C25.7014905,63.2066826 25.1634835,62.7261555 24.6254766,62.2456284" id="Path-27"></path>
                <polyline id="Path-28" points="21.5277599 53.599074 21.5277599 53.2162946 21.5277599 52.6814457 21.5277599 52.304825 21.5277599 51.9741566 21.5277599 51.8945689"></polyline>
                <polyline id="Path-28" points="19.6727828 54.9365216 19.6727828 54.5537422 19.6727828 54.0188934 19.6727828 53.6422726 19.6727828 53.3116043 19.6727828 53.2320165"></polyline>
                <polyline id="Path-29" points="20.5184547 50.4375159 20.5184547 49.8443168 20.5184547 49.6680862 20.5184547 49.5563626 20.5184547 49.3329154 20.5184547 49.2770536 20.5184547 49.2211918 20.5184547 49.1653301 20.5184547 49.1094683 20.5184547 49.0536065 20.5184547 48.8301593 20.5184547 48.7742975 20.5184547 48.6625739 20.5184547 48.6067121"></polyline>
                <polyline id="Path-29" points="20.8167232 47.1642412 20.8167232 46.5710421 20.8167232 46.3948115 20.8167232 46.2830879 20.8167232 46.0596407 20.8167232 46.0037789 20.8167232 45.9479171 20.8167232 45.8920553 20.8167232 45.8361935 20.8167232 45.7803317 20.8167232 45.5568846 20.8167232 45.5010228 20.8167232 45.3892992 20.8167232 45.3334374"></polyline>
            </g>
            <g id="Scissors" transform="translate(99.055595, 59.646984) rotate(215.000000) translate(-99.055595, -59.646984) translate(73.555595, 5.646984)">
                <path d="M21.3917509,0.154994941 C21.0234837,0.154994941 20.1539597,10.6223363 19.7456898,18.3254199 C19.3374198,26.0285034 18.4873209,45.4007762 18.4873209,49.3214288 C18.4873209,56.9598058 17.7347307,60.9270917 17.41628,64.20671 C16.2526959,72.8883482 12.9483243,76.8949509 12.9483243,76.8949509 C12.9483243,76.8949509 7.2096306,78.992674 4.29729592,83.305854 C2.6161222,85.7956794 -0.13004724,92.5005326 0.857408911,98.3757722 C1.58054505,102.678341 4.29729592,107.257488 10.9184193,107.967484 C24.5873235,108.637017 26.5707754,91.4626532 24.5873235,85.999034 C22.6038716,80.5354147 18.4873209,76.2125368 18.4873209,76.2125368 C18.4873209,76.2125368 21.1065057,71.9314281 21.7800437,69.6220441 C22.4535817,67.3126601 22.2373531,62.9483858 22.6038716,62.9483858 C23.017292,62.9483858 25.2940567,64.5882506 26.9803848,67.3650651 C28.666713,70.1418796 31.6525513,77.5303468 31.6525513,78.4845313 C31.6525513,80.0741117 24.9849826,88.0336574 26.7864456,97.2583426 C28.5084991,104.459356 33.9274398,108.471436 42.0550483,106.499631 C51.0755377,104.311209 52.1987175,92.1238914 49.4789095,84.411428 C46.3034126,77.2118573 35.5016636,76.2125368 35.5016636,76.2125368 C35.5016636,76.2125368 30.2025978,67.2237917 30.9275746,66.1667363 C31.2412985,65.7093098 34.3380689,70.1822286 37.7912599,73.5063259 C41.2444509,76.8304231 47.830109,81.491657 47.830109,81.491657 L49.4789095,79.9501685 C49.4789095,79.9501685 46.002134,74.7081666 42.0550483,69.1705115 C38.1079626,63.6328564 35.1499779,59.6932108 34.4012474,59.6932108 C32.7264609,59.6932108 28.0170691,59.6932108 25.2701431,56.3173029 C22.5232171,52.941395 22.2357464,45.9181285 22.6038716,44.0525267 C22.9719967,42.1869248 26.4369685,40.8019056 26.4369685,36.9840487 C26.4369685,33.1661918 21.7800437,30.4887985 21.7800437,30.4887985 C21.7800437,30.4887985 22.6038716,0.154994941 21.3917509,0.154994941 Z" id="Path-11" stroke="#FFC9E2"></path>
                <path d="M3.90005943,89.1075381 C2.9827602,93.0288931 3.34988866,98.8438057 5.41253438,101.925107 C7.47518011,105.006409 14.2255152,107.710101 18.987603,102.837252 C27.1452483,94.4898681 21.0632233,79.1224455 11.3804005,80.4383982 C5.30790867,82.2730608 4.6017853,86.1077359 3.90005943,89.1075381 Z" id="Path-12" stroke="#FFC9E1" transform="translate(13.110187, 92.933953) rotate(11.000000) translate(-13.110187, -92.933953) "></path>
                <path d="M29.5696977,88.4807216 C28.3169367,92.2500758 29.0195269,98.2169892 31.0821726,101.298291 C33.1448183,104.379593 39.8951534,107.083285 44.6572412,102.210435 C52.8148866,93.8630515 47.3710201,77.8738212 37.0500387,79.8115817 C32.2911924,81.0050397 30.5552997,85.5152051 29.5696977,88.4807216 Z" id="Path-12" stroke="#FFC9E1" transform="translate(38.775497, 92.266130) rotate(-2.000000) translate(-38.775497, -92.266130) "></path>
                <ellipse id="Oval-2" stroke="#FFC9E1" stroke-width="0.7" cx="22.5574454" cy="36.5379853" rx="1.93351021" ry="1.9891269"></ellipse>
                <path d="M21.3557972,35.3885904 L23.6760094,37.7755426" id="Line" stroke="#FFC9E1" stroke-linecap="square"></path>
                <path d="M13.6584562,75.8007008 C14.6743519,75.4166897 15.8296457,75.2983136 16.9719945,74.9967739 C18.1143433,74.6952342 18.9547684,74.2888303 19.8411891,73.9537612" id="Path-13" stroke="#FFC9E1"></path>
                <path d="M30.7108577,75.8424602 C30.7108577,75.8424602 32.0840775,75.8835965 32.7712495,75.8424602 C33.4584215,75.801324 35.2860618,75.6534743 35.2860618,75.6534743" id="Path-13" stroke="#FFC9E1" transform="translate(32.998460, 76.153474) scale(-1, 1) translate(-32.998460, -76.153474) "></path>
                <path d="M29.7588236,73.6606326 C29.7588236,73.6606326 30.9697404,73.7017688 31.6569124,73.6606326 C32.3440844,73.6194963 34.1717246,73.4716466 34.1717246,73.4716466" id="Path-13" stroke="#FFC9E1" transform="translate(31.965274, 73.971647) scale(-1, 1) translate(-31.965274, -73.971647) "></path>
                <path d="M29.0499276,71.3398358 C29.0499276,71.3398358 30.3594048,71.3809721 31.0465768,71.3398358 C31.7337488,71.2986996 32.9426319,71.1399874 32.9426319,71.1399874" id="Path-13" stroke="#FFC9E1" transform="translate(30.996280, 71.639987) scale(-1, 1) translate(-30.996280, -71.639987) "></path>
                <path d="M27.9653789,69.1697776 C27.9653789,69.1697776 29.2748561,69.2109139 29.9620281,69.1697776 C30.6492001,69.1286414 31.8580832,68.9699292 31.8580832,68.9699292" id="Path-13" stroke="#FFC9E1" transform="translate(29.911731, 69.469929) scale(-1, 1) translate(-29.911731, -69.469929) "></path>
                <path d="M26.4653458,66.9460384 C26.4653458,66.9460384 27.3125028,67.0335587 28.585178,66.9460384 C29.8578532,66.8585181 30.9618472,66.6368196 30.9618472,66.6368196" id="Path-13" stroke="#FFC9E1" transform="translate(28.713597, 67.136820) scale(-1, 1) translate(-28.713597, -67.136820) "></path>
                <path d="M15.0943208,72.992327 C16.0373725,72.4701507 17.1494069,72.3359456 18.2901801,71.8853056 C19.4309534,71.4346657 21.4860395,70.3647422 21.4860395,70.3647422" id="Path-14" stroke="#FFC9E1"></path>
                <path d="M16.0228213,70.3039651 C16.8673099,69.8510873 18.016125,69.4000547 19.0988979,68.9229029 C20.1816708,68.4457511 22.1749745,67.5418407 22.1749745,67.5418407" id="Path-15" stroke="#FFC9E1"></path>
                <path d="M16.8402323,67.4637861 C16.8402323,67.4637861 18.5316908,66.7407341 19.4286488,66.3233163 C20.3256069,65.9058986 21.3620395,65.3594709 22.2775061,64.9334399" id="Path-16" stroke="#FFC9E1"></path>
                <path d="M17.3731497,64.9833172 L22.5992431,62.8307377" id="Path-17" stroke="#FFC9E1"></path>
                <path d="M18.2299146,56.1193361 C18.2299146,56.1193361 19.3333969,59.0676546 20.193043,60.3908817 C21.0526892,61.7141087 22.6656053,62.9470595 22.6656053,62.9470595" id="Path-17" stroke="#FFC9E1"></path>
                <path d="M17.6053233,62.3876043 C17.6053233,62.3876043 18.7073239,62.0830381 19.3221797,61.8492471 C19.9370355,61.6154561 20.7924627,61.1757354 20.7924627,61.1757354" id="Path-18" stroke="#FFC9E1"></path>
                <path d="M31.3770572,66.288004 C31.9015565,66.2126627 33.1717833,66.5020701 33.7195499,65.9079073 C34.2673165,65.3137445 33.8014071,64.1675329 34.0810605,63.8519463 C34.3607139,63.5363597 35.5034476,64.051283 36.0620426,63.3158161 C36.6206377,62.5803491 35.9880589,61.4059025 36.0620426,61.0029823" id="Path-19" stroke="#FFC9E1" stroke-width="0.8"></path>
                <path d="M33.1012108,68.3996502 C33.6257101,68.3243088 34.8959369,68.6137163 35.4437035,68.0195535 C35.9914701,67.4253906 35.5255607,66.279179 35.8052141,65.9635924 C36.0848675,65.6480059 37.2276012,66.1629292 37.7861962,65.4274622 C38.3447913,64.6919952 37.7122125,63.5175486 37.7861962,63.1146284" id="Path-19" stroke="#FFC9E1" stroke-width="0.8"></path>
                <path d="M34.9406763,70.80689 C35.4651756,70.7315486 36.7354024,71.0209561 37.283169,70.4267933 C37.8309357,69.8326304 37.3650262,68.6864188 37.6446796,68.3708323 C37.924333,68.0552457 39.0670667,68.570169 39.6256618,67.834702 C40.1842568,67.0992351 39.551678,65.9247885 39.6256618,65.5218682" id="Path-19" stroke="#FFC9E1" stroke-width="0.8"></path>
                <path d="M37.5388371,73.0866126 C37.9844653,73.0226006 39.0636829,73.2684887 39.5290796,72.7636726 C39.9944764,72.2588564 39.5986276,71.2850053 39.8362284,71.0168748 C40.0738292,70.7487443 41.0447253,71.1862364 41.5193222,70.5613647 C41.993919,69.9364929 41.4564637,68.9386526 41.5193222,68.5963211" id="Path-19" stroke="#FFC9E1" stroke-width="0.8"></path>
                <path d="M39.4227529,74.9236981 C39.653947,74.8904884 41.5003572,74.9409062 42.4620386,73.8275253 C43.4237199,72.7141444 43.3912445,70.9776459 43.4214917,70.8129177" id="Path-19" stroke="#FFC9E1" stroke-width="0.8"></path>
                <path d="M41.9220201,76.9693337 C42.1532142,76.936124 43.7945672,77.3278585 44.7562486,76.2144776 C45.7179299,75.1010967 45.5929747,74.2123605 45.6232219,74.0476323" id="Path-19" stroke="#FFC9E1" stroke-width="0.8"></path>
                <path d="M45.1256743,79.3937815 C45.2947717,79.3694916 46.2270338,79.5773092 46.9304158,78.7629729 C47.6337977,77.9486366 47.5424044,77.2986074 47.5645275,77.1781237" id="Path-19" stroke="#FFC9E1" stroke-width="0.8"></path>
                <path d="M24.8525048,60.5113682 L23.0413937,59.2171192" id="Path-20" stroke="#FFC9E1"></path>
                <path d="M28.2463234,60.545951 L26.6415123,59.6055834" id="Path-21" stroke="#FFC9E1"></path>
                <path d="M29.1045108,63.0036998 L27.458716,62.1386564" id="Path-22" stroke="#FFC9E1"></path>
                <path d="M30.4894974,65.3932691 L28.8437026,64.5282256" id="Path-22" stroke="#FFC9E1" transform="translate(29.666600, 65.028226) rotate(-22.000000) translate(-29.666600, -65.028226) "></path>
                <path d="M32.7591351,62.976221 L31.024005,62.2874076" id="Path-23" stroke="#FFC9E1"></path>
                <path d="M23.8426481,57.010453 C23.5082216,56.3222115 22.9172633,55.1479128 22.8975722,55.1073891" id="Path-25" stroke="#FFC9E1"></path>
                <path d="M21.1186972,57.8114765 L20.8866098,55.9141604" id="Path-26" stroke="#FFC9E1" transform="translate(21.386610, 56.862818) rotate(-12.000000) translate(-21.386610, -56.862818) "></path>
                <path d="M26.2394975,63.6872096 C25.7014905,63.2066826 25.1634835,62.7261555 24.6254766,62.2456284" id="Path-27" stroke="#FFC9E1"></path>
                <polyline id="Path-28" stroke="#FFC9E1" points="21.5277599 53.599074 21.5277599 53.2162946 21.5277599 52.6814457 21.5277599 52.304825 21.5277599 51.9741566 21.5277599 51.8945689"></polyline>
                <polyline id="Path-28" stroke="#FFC9E1" points="19.6727828 54.9365216 19.6727828 54.5537422 19.6727828 54.0188934 19.6727828 53.6422726 19.6727828 53.3116043 19.6727828 53.2320165"></polyline>
                <polyline id="Path-29" stroke="#FFC9E1" points="20.5184547 50.4375159 20.5184547 49.8443168 20.5184547 49.6680862 20.5184547 49.5563626 20.5184547 49.3329154 20.5184547 49.2770536 20.5184547 49.2211918 20.5184547 49.1653301 20.5184547 49.1094683 20.5184547 49.0536065 20.5184547 48.8301593 20.5184547 48.7742975 20.5184547 48.6625739 20.5184547 48.6067121"></polyline>
                <polyline id="Path-29" stroke="#FFC9E1" points="20.8167232 47.1642412 20.8167232 46.5710421 20.8167232 46.3948115 20.8167232 46.2830879 20.8167232 46.0596407 20.8167232 46.0037789 20.8167232 45.9479171 20.8167232 45.8920553 20.8167232 45.8361935 20.8167232 45.7803317 20.8167232 45.5568846 20.8167232 45.5010228 20.8167232 45.3892992 20.8167232 45.3334374"></polyline>
            </g>
        </g>
    </g>
</svg>